<svg width="74" height="135" viewBox="0 0 74 135" fill="none" xmlns="http://www.w3.org/2000/svg">
<path d="M29.8678 62.1287C13.7934 70.0977 9.17513 102.149 9.10555 103.063L6.77441 102.926C6.84766 102.014 11.9146 68.3744 27.989 60.4036L29.8678 62.1287Z" fill="white"/>
<path d="M29.8678 62.1287C13.7934 70.0977 9.17513 102.149 9.10555 103.063L6.77441 102.926C6.84766 102.014 11.9146 68.3744 27.989 60.4036L29.8678 62.1287Z" stroke="black" stroke-miterlimit="10"/>
<path d="M57.1289 72.645C53.4427 76.4198 47.4034 77.2185 42.1844 76.4325C41.7944 76.3815 41.4098 76.3158 41.0253 76.2374L40.8 76.19C40.4155 76.1116 40.0364 76.0186 39.6592 75.911C34.5574 74.5615 29.3512 71.4377 27.4651 66.5104C25.405 61.1363 26.0148 54.9562 28.0859 49.7006C32.2739 39.1238 41.1406 29.2309 51.0419 23.3845C51.3715 23.1763 51.712 22.9857 52.062 22.8137C52.3092 23.1164 52.5271 23.4264 52.7578 23.7383C59.4894 33.024 63.6682 45.6213 63.28 56.9785C63.0785 62.6317 61.1796 68.5328 57.1289 72.645Z" fill="white"/>
<path d="M57.1289 72.645C53.4427 76.4198 47.4034 77.2185 42.1844 76.4325C41.7944 76.3815 41.4098 76.3158 41.0253 76.2374L40.8 76.19C40.4155 76.1116 40.0364 76.0186 39.6592 75.911C34.5574 74.5615 29.3512 71.4377 27.4651 66.5104C25.405 61.1363 26.0148 54.9562 28.0859 49.7006C32.2739 39.1238 41.1406 29.2309 51.0419 23.3845C51.3715 23.1763 51.712 22.9857 52.062 22.8137C52.3092 23.1164 52.5271 23.4264 52.7578 23.7383C59.4894 33.024 63.6682 45.6213 63.28 56.9785C63.073 62.6225 61.1741 68.5328 57.1289 72.645Z" stroke="black" stroke-miterlimit="10"/>
<path d="M46.5089 41.9486C40.8047 40.3493 38.7373 52.3303 47.0913 51.7212C53.6617 51.2434 53.1617 41.2247 45.8094 41.9267" fill="black"/>
<path d="M32.6317 37.7018C26.9256 36.1025 24.8582 48.0835 33.2121 47.4744C39.7825 46.9984 39.2808 36.9778 31.9303 37.6799" fill="black"/>
<path d="M42.3097 46.3709C42.1803 45.876 41.9361 45.4183 41.5968 45.0344C41.2574 44.6506 40.8324 44.3513 40.3558 44.1607C39.8572 43.9708 39.3213 43.8976 38.7898 43.947C38.2582 43.9963 37.7452 44.1668 37.2904 44.4452L36.6934 43.4423C37.3015 43.0714 37.9875 42.8455 38.6978 42.7822C39.408 42.719 40.1233 42.82 40.7879 43.0775C41.4288 43.3373 42.0011 43.7406 42.4603 44.256C42.9194 44.7715 43.2533 45.3853 43.4359 46.05L42.3097 46.3709Z" fill="black"/>
<path d="M51.607 47.2719L50.8984 46.3437C51.9514 45.5486 60.135 40.4371 63.3195 42.3318C64.3523 42.9482 64.7368 44.1408 64.4603 45.8769L63.303 45.6945C63.499 44.4764 63.303 43.6886 62.717 43.3238C60.5562 42.0328 53.6159 45.7437 51.607 47.2591" fill="black"/>
<path d="M45.4309 32.8472C43.4733 35.123 41.6238 37.3733 39.7541 39.6455C38.8074 40.7652 37.7984 41.8703 37.0073 43.1267C36.6061 43.7487 36.257 44.4026 35.9635 45.0816C35.6422 45.7475 35.3764 46.4385 35.1688 47.1477C34.6872 48.5446 34.374 49.9743 33.9785 51.373C33.7954 52.0787 33.7148 52.8045 33.5792 53.5175L33.376 54.5825L33.268 55.6639C32.7736 58.536 32.887 61.4318 32.8468 64.4426L32.7058 64.4681C31.8414 61.6069 31.3379 58.5214 31.7316 55.4851C32.0978 52.4653 32.9511 49.4783 34.4381 46.8395C34.7512 46.1539 35.1541 45.5138 35.524 44.861C35.8939 44.2081 36.2126 43.5316 36.6026 42.8915C37.304 41.5694 37.9723 40.2108 38.7835 38.9288C39.6454 37.6795 40.6386 36.5253 41.7465 35.4859C42.8247 34.419 44.0359 33.4942 45.3503 32.7341L45.4309 32.8472Z" fill="black"/>
<path d="M42.2297 51.1705C42.4086 52.9552 42.3427 54.7558 42.0338 56.5227C41.8507 57.3944 41.5375 58.2588 41.4313 59.1432C41.326 60.0306 41.326 60.9273 41.4313 61.8148C41.6584 63.5982 41.7316 65.3543 41.825 67.1032C41.8653 68.8629 41.8855 70.6008 41.7884 72.4353L41.6474 72.4663C40.8289 70.8068 40.4571 68.9887 40.2831 67.1779C40.1835 65.3674 40.3022 63.5516 40.6366 61.7692C40.8188 60.8887 40.9253 59.9943 40.9552 59.0958C40.9735 58.2022 40.8215 57.2868 40.8288 56.3841C40.8876 54.5669 41.3136 52.78 42.0814 51.1304L42.2297 51.1705Z" fill="black"/>
<path d="M50.7318 36.416C51.8444 37.4896 52.635 38.8503 53.0153 40.3458C53.1728 41.0953 53.1765 41.8813 53.3266 42.6144C53.4892 43.3512 53.709 44.0743 53.984 44.7771C54.5359 46.2127 54.8189 47.7369 54.819 49.2741C54.8016 50.8259 54.4217 52.3524 53.7093 53.7328L53.5683 53.7018C53.3651 52.1535 53.3852 50.7348 53.2735 49.2905C53.257 47.8535 53.2094 46.4147 53.2057 44.923C53.2153 44.1804 53.1028 43.4412 52.8725 42.7347C52.6399 42.0308 52.1912 41.3999 51.8744 40.7288C51.2745 39.369 50.8483 37.9397 50.6055 36.4744L50.7318 36.416Z" fill="black"/>
<path d="M66.0054 118.627C66.0054 118.627 72.2535 117.834 73.2661 126.3C73.2661 126.3 73.6727 128.921 70.4314 127.712L67.192 125.695C67.192 125.695 68.408 127.519 68.2065 128.115C68.0051 128.711 67.5985 129.727 65.5732 127.712C65.5732 127.712 63.3758 124.707 64.2694 120.868C65.163 117.029 66.031 118.818 66.0054 118.627Z" fill="black"/>
<path d="M14.2994 8.11398C14.2994 8.11398 15.3506 1.92837 6.89403 0.57892C6.89403 0.57892 4.28275 0.0683213 5.36316 3.34165L7.25482 6.64598C7.25482 6.64598 5.48404 5.36947 4.87424 5.54088C4.26445 5.7123 3.22613 6.08797 5.17271 8.17597C5.17271 8.17597 8.10265 10.4901 11.9866 9.74973C15.8707 9.00935 14.1145 8.08115 14.305 8.1085" fill="black"/>
<path d="M33.3891 38.803L9.79395 2.21826" stroke="black" stroke-miterlimit="10"/>
<path d="M32.5424 42.175L8.94727 5.59204" stroke="black" stroke-miterlimit="10"/>
<path d="M66.5463 120.259C70.628 92.3217 54.8137 58.8042 54.8137 58.8042L52.25 59.8218C52.25 59.8218 68.0625 93.3465 63.9826 121.277L66.5463 120.259Z" fill="white"/>
<path d="M66.5463 120.259C70.628 92.3217 54.8137 58.8042 54.8137 58.8042L52.25 59.8218C52.25 59.8218 68.0625 93.3465 63.9826 121.277L66.5463 120.259Z" stroke="black" stroke-miterlimit="10"/>
<path d="M43.7627 125.909C56.4347 107.786 44.5978 74.7369 44.2004 73.8343L46.7091 72.4155C47.1083 73.3182 59.2987 108.158 46.6249 126.275L43.7627 125.909Z" fill="white"/>
<path d="M43.7627 125.909C56.4347 107.786 44.5978 74.7369 44.2004 73.8343L46.7091 72.4155C47.1083 73.3182 59.2987 108.158 46.6249 126.275L43.7627 125.909Z" stroke="black" stroke-miterlimit="10"/>
<path d="M46.375 132.933C44.5585 133.72 42.6448 133.89 40.8136 134.043C40.3137 134.098 39.8193 134.138 39.3322 134.195C38.8158 134.253 38.1949 134.377 37.5412 134.51C35.6715 134.891 33.4009 135.356 31.707 134.578C31.445 134.458 31.1989 134.307 30.9745 134.127L30.5039 133.762L30.7859 133.241C32.8003 129.501 37.3874 127.555 41.4399 125.85C42.7217 125.303 43.9469 124.79 45.0236 124.238L45.4246 124.039L45.7909 124.307C46.6735 124.982 49.5284 127.382 49.2244 129.864C49.0578 131.166 48.1037 132.198 46.375 132.938" fill="black"/>
<path d="M12.6054 108.951C11.6495 110.68 10.2377 111.978 8.88442 113.214C8.51818 113.559 8.15195 113.893 7.80402 114.236C7.45609 114.578 7.01474 115.069 6.58074 115.574C5.33368 117.013 3.8211 118.762 2.00271 119.176C1.72304 119.24 1.43633 119.27 1.14933 119.263H0.550522L0.451719 118.678C-0.245973 114.484 2.19134 110.16 4.35217 106.345C5.02972 105.13 5.68709 103.974 6.19983 102.88L6.39395 102.477H6.84809C7.95964 102.477 11.6917 102.636 12.9735 104.784C13.6419 105.92 13.5229 107.315 12.6073 108.954" fill="black"/>
</svg>
