<svg width="81" height="80" viewBox="0 0 81 80" fill="none" xmlns="http://www.w3.org/2000/svg">
<g opacity="0.3">
<g opacity="0.3">
<g opacity="0.3">
<g opacity="0.3">
<path d="M59.3342 2.79004L66.9736 6.08568L59.5829 8.83881L59.3342 2.79004Z" fill="#010101"/>
</g>
<g opacity="0.3">
<path d="M74.731 62.9305L17.3923 79.0619L0.906097 17.363L58.9299 1.3418" fill="#010101"/>
</g>
<g opacity="0.3">
<path d="M58.7343 0.628418L59.1421 2.0723L1.83611 17.8978L17.9349 78.1486L74.5433 62.213L74.9512 63.6528L16.8826 80.0004L0.000679016 16.8495L58.7343 0.628418Z" fill="#010101"/>
</g>
<g opacity="0.3">
<path d="M17.392 79.0617C19.0235 68.9383 35.8237 59.0107 35.8237 59.0107L17.392 79.0617Z" fill="#010101"/>
</g>
<g opacity="0.3">
<path d="M36.2031 59.6632C36.04 59.7611 19.7048 69.5337 18.1263 79.1921L16.6539 78.9515C18.3425 68.6037 34.7431 58.7904 35.4406 58.3784L36.2031 59.6632Z" fill="#010101"/>
</g>
<g opacity="0.3">
<path d="M0.906363 17.3711C14.5089 20.2017 24.9951 17.779 24.9951 17.779L0.906363 17.3711Z" fill="#010101"/>
</g>
<g opacity="0.3">
<path d="M1.07343 16.6328C14.3456 19.3941 24.73 17.0652 24.8401 17.0407L25.1787 18.4927C24.7423 18.5947 14.3741 20.94 0.767523 18.0849L1.0571 16.6328" fill="#010101"/>
</g>
<g opacity="0.3">
<path d="M64.8198 47.8105L78.3857 48.8629C75.1228 53.1007 74.2009 63.5259 74.2009 63.5259" fill="#010101"/>
</g>
<g opacity="0.3">
<path d="M79.8169 48.231L79.0012 49.3242C75.9258 53.3377 74.9633 63.4937 74.9633 63.5997L73.4746 63.4651C73.5153 63.0572 74.3352 54.288 77.0843 49.5159L64.7828 48.5614L64.8969 47.0728L79.8169 48.231Z" fill="#010101"/>
</g>
<g opacity="0.3">
<path d="M58.7101 0.46875C61.8304 5.43663 67.9647 4.75546 68.2217 4.72691L68.4053 6.20744C68.1075 6.24823 61.088 7.05179 57.4457 1.26816L58.7101 0.472833" fill="#010101"/>
</g>
<g opacity="0.3">
<path d="M25.1251 17.7385L36.1988 59.1702L78.8989 47.7497L67.8292 6.31396L25.1251 17.7385Z" fill="#010101"/>
</g>
<g opacity="0.3">
<path d="M68.3267 5.4165L79.7798 48.2962L35.6316 60.0959L24.1785 17.2122L68.3267 5.4165ZM77.9483 47.2479L67.2744 7.25601L26.0058 18.2686L36.7084 58.2604L77.9483 47.2479Z" fill="#010101"/>
</g>
<g opacity="0.3">
<path d="M47.4485 23.9988C35.2898 23.7092 35.661 40.3137 46.5063 40.3137C60.3046 40.3137 55.4795 20.8051 46.3024 24.1211" fill="#010101"/>
</g>
<g opacity="0.3">
<path d="M69.7265 15.3607C57.5679 15.0712 57.939 31.6756 68.7843 31.6756C82.5786 31.6756 77.7575 12.1712 68.5804 15.4831" fill="#010101"/>
</g>
<g opacity="0.3">
<path d="M51.8324 30.5249C52.0513 29.4071 52.5255 28.3551 53.2181 27.4509C53.9108 26.5466 54.8032 25.8147 55.8255 25.3123C56.8869 24.8096 58.0498 24.5584 59.2241 24.5782C60.3983 24.598 61.5523 24.8884 62.5962 25.4265L61.7233 27.1559C60.9442 26.7486 60.0815 26.5266 59.2026 26.5074C58.3243 26.4908 57.4539 26.675 56.6575 27.0458C55.8982 27.4184 55.2361 27.963 54.7241 28.6363C54.2122 29.3097 53.8646 30.0933 53.7086 30.9246L51.8324 30.5249Z" fill="#010101"/>
</g>
<g opacity="0.3">
<path d="M19.8307 28.3307C18.913 28.9752 18.6805 30.3089 19.1454 32.2993L17.2692 32.7357C16.6084 29.905 17.0938 27.8943 18.7212 26.7522C23.7258 23.2445 37.773 30.7045 39.5962 31.8955L38.5438 33.527C35.0769 31.2389 23.2283 25.9447 19.8307 28.3307Z" fill="#010101"/>
</g>
</g>
</g>
</g>
<path d="M59.7903 2.33301L67.4297 5.62865L60.035 8.38178L59.7903 2.33301Z" fill="white"/>
<path d="M75.1836 62.4777L17.8449 78.6171L1.35873 16.9183L59.3825 0.893066" fill="white"/>
<path d="M59.1827 0.175293L59.5905 1.61509L2.28849 17.4405L18.3546 77.6913L74.9632 61.7599L75.3711 63.1997L17.3023 79.5431L0.428566 16.3964L59.1827 0.175293Z" fill="#231F20"/>
<path d="M17.8446 78.6213C19.5006 68.4938 36.2764 58.5703 36.2764 58.5703L17.8446 78.6213Z" fill="white"/>
<path d="M36.6558 59.2108C36.4926 59.3087 20.1573 69.0813 18.5829 78.7397L17.1064 78.495C18.795 68.1514 35.1955 58.3379 35.893 57.9219L36.6558 59.2108Z" fill="#231F20"/>
<path d="M1.35824 16.9185C14.9649 19.7491 25.4512 17.3263 25.4512 17.3263L1.35824 16.9185Z" fill="white"/>
<path d="M1.50966 16.1843C14.7777 18.9456 25.1662 16.6166 25.2804 16.5921L25.6147 18.0441C25.1824 18.142 14.8185 20.4913 1.20376 17.6362L1.51364 16.1802" fill="#231F20"/>
<path d="M65.2597 47.3579L78.8296 48.4103C75.5666 52.644 74.6447 63.0937 74.6447 63.0937" fill="white"/>
<path d="M80.2695 47.7738L79.4335 48.8669C76.3581 52.8803 75.3956 63.0404 75.3956 63.1424L73.9109 63.0078C73.9476 62.5999 74.7673 53.8307 77.5164 49.0586L65.2151 48.1042L65.3292 46.6113L80.2695 47.7738Z" fill="#231F20"/>
<path d="M59.1418 0.0163308C62.262 4.98013 68.3963 4.30304 68.6533 4.27041L68.8369 5.75512C68.5432 5.79591 61.5196 6.59529 57.8773 0.815744L59.1418 0" fill="#231F20"/>
<path d="M25.5822 17.2858L36.6517 58.7175L79.356 47.2971L68.2823 5.86133L25.5822 17.2858Z" fill="white"/>
<path d="M68.7796 4.97607L80.2368 47.8556L36.0847 59.6513L24.6316 16.7717L68.7796 4.97607ZM78.4135 46.7951L67.7272 6.82365L26.4628 17.8362L37.1491 57.8281L78.4135 46.7951Z" fill="#231F20"/>
<path d="M47.9005 23.5546C35.7418 23.265 36.1131 39.8695 46.9625 39.8695C60.7567 39.8695 55.9356 20.3651 46.7544 23.677" fill="#010101"/>
<path d="M70.1787 14.9117C58.02 14.6221 58.391 31.2266 69.2404 31.2266C83.0306 31.2266 78.2137 11.7262 69.0325 15.0341" fill="#010101"/>
<path d="M52.2896 30.0685C52.5094 28.9515 52.9839 27.9004 53.6765 26.997C54.3692 26.0936 55.2611 25.3623 56.2827 24.8601C57.3434 24.3546 58.5066 24.1019 59.6813 24.1217C60.8561 24.1415 62.0102 24.4333 63.0532 24.9742L62.1805 26.6996C61.4007 26.2926 60.5374 26.0712 59.658 26.0528C58.7786 26.0344 57.9067 26.2195 57.1106 26.5935C56.3509 26.9647 55.6886 27.5083 55.1766 28.1811C54.6646 28.8539 54.317 29.6372 54.1617 30.4683L52.2896 30.0685Z" fill="#010101"/>
<path d="M20.2838 27.8658C19.3661 28.5103 19.1336 29.844 19.5986 31.8344L17.7225 32.2709C17.0617 29.4402 17.5469 27.4295 19.1743 26.2874C24.1789 22.7797 38.2302 30.2396 40.0493 31.4265L38.997 33.058C35.5219 30.7739 23.6814 25.4798 20.2838 27.8658Z" fill="#010101"/>
</svg>
