<svg width="55" height="84" viewBox="0 0 55 84" fill="none" xmlns="http://www.w3.org/2000/svg">
<path d="M27.6676 4.39668C23.6456 21.1924 5.42143 29.6013 1.86294 48.1334C-0.905121 62.5483 2.64386 74.357 17.5127 80.1217C34.6195 86.7562 51.3199 74.9633 53.4753 58.1136C55.1324 45.1717 50.5613 37.9658 44.2919 27.2999C40.0921 20.148 37.743 2.10793 28.2707 2C27.4453 5.11725 26.1026 9.52014 27.6676 4.39668Z" fill="white"/>
<path d="M27.6676 4.39668C23.6456 21.1924 5.42143 29.6013 1.86294 48.1334C-0.905121 62.5483 2.64386 74.357 17.5127 80.1217C34.6195 86.7562 51.3199 74.9633 53.4753 58.1136C55.1324 45.1717 50.5613 37.9658 44.2919 27.2999C40.0921 20.148 37.743 2.10793 28.2707 2C27.4453 5.11725 26.1026 9.52014 27.6676 4.39668" stroke="#231F20" stroke-width="2" stroke-miterlimit="10"/>
<path d="M27.6676 4.39668C23.6456 21.1924 5.42143 29.6013 1.86294 48.1334C-0.905121 62.5483 2.64386 74.357 17.5127 80.1217C34.6195 86.7562 51.3199 74.9633 53.4753 58.1136C55.1324 45.1717 50.5613 37.9658 44.2919 27.2999C40.0921 20.148 37.743 2.10793 28.2707 2C27.439 5.11407 26.0962 9.52014 27.6676 4.39668Z" stroke="#231F20" stroke-width="2" stroke-miterlimit="10"/>
<path d="M20.8174 31.0361C15.0781 30.8933 16.0177 42.683 23.7125 40.1086C29.766 38.0865 26.8869 28.7602 20.1572 31.1822" fill="#010101"/>
<path d="M20.8174 31.0361C15.0781 30.8933 16.0177 42.683 23.7125 40.1086C29.766 38.0865 26.8869 28.7602 20.1572 31.1822" stroke="#231F20" stroke-width="2" stroke-miterlimit="10"/>
<path d="M6.77682 30.3538C1.03753 30.2173 1.98036 42.0038 9.6719 39.4294C15.7255 37.4042 12.8463 28.0778 6.1166 30.503" fill="#010101"/>
<path d="M6.77682 30.3538C1.03753 30.2173 1.98036 42.0038 9.6719 39.4294C15.7255 37.4042 12.8463 28.0778 6.1166 30.503" stroke="#231F20" stroke-width="2" stroke-miterlimit="10"/>
<path d="M17.9475 36.2233C17.7059 35.7885 17.3659 35.4162 16.9548 35.1362C16.5436 34.8562 16.0726 34.6762 15.5795 34.6107C15.0663 34.5503 14.5462 34.6091 14.0595 34.7825C13.5727 34.9559 13.1327 35.2394 12.7733 35.6107L11.9702 34.8075C12.4523 34.3122 13.0424 33.935 13.6944 33.7054C14.3463 33.4758 15.0425 33.4 15.7286 33.4838C16.3926 33.5755 17.0266 33.8187 17.5814 34.1947C18.1363 34.5706 18.5972 35.0692 18.9284 35.6519L17.9475 36.2233Z" fill="#010101" stroke="#231F20" stroke-width="2" stroke-miterlimit="10"/>
<path d="M26.893 34.8296L26.001 34.1248C26.8009 33.1217 33.2513 26.3445 36.6955 27.373C37.816 27.7063 38.4636 28.7379 38.6223 30.4394L37.4922 30.5474C37.3811 29.3506 37.0034 28.6427 36.3749 28.4586C34.0353 27.7602 28.4104 32.9186 26.893 34.8296Z" fill="#010101"/>
<path d="M26.893 34.8296L26.001 34.1248C26.8009 33.1217 33.2513 26.3445 36.6955 27.373C37.816 27.7063 38.4636 28.7379 38.6223 30.4394L37.4922 30.5474C37.3811 29.3506 37.0034 28.6427 36.3749 28.4586C34.0353 27.7602 28.4104 32.9186 26.893 34.8296" stroke="#231F20" stroke-width="2" stroke-miterlimit="10"/>
<path d="M31.3053 73.9351C28.2293 73.8335 25.0931 73.4336 22.1218 72.3479C19.1233 71.2824 16.4696 69.424 14.443 66.9705C12.4943 64.5431 11.0486 61.7518 10.1902 58.7597C9.33181 55.7675 9.07793 52.6344 9.44334 49.5431C10.1925 43.3149 13.6589 38.0105 17.0999 33.122L27.5754 18.3579L17.5094 33.4108C14.2017 38.3851 10.9829 43.7118 10.4464 49.651C9.91947 55.5141 11.7797 61.5931 15.5984 65.9832C17.5029 68.1554 19.9617 69.7694 22.7122 70.6528C25.4485 71.5638 28.3912 71.8591 31.3307 71.8654C31.6052 71.8654 31.8684 71.9744 32.0625 72.1685C32.2566 72.3626 32.3656 72.6258 32.3656 72.9003C32.3656 73.1747 32.2566 73.4379 32.0625 73.632C31.8684 73.8261 31.6052 73.9351 31.3307 73.9351H31.2926" fill="#010101"/>
<path d="M31.3053 73.9351C28.2293 73.8335 25.0931 73.4336 22.1218 72.3479C19.1233 71.2824 16.4696 69.4241 14.443 66.9705C12.4943 64.5431 11.0486 61.7518 10.1902 58.7597C9.33181 55.7675 9.07793 52.6344 9.44334 49.5431C10.1925 43.3149 13.6589 38.0105 17.0999 33.122L27.5754 18.3579L17.5094 33.4108C14.2017 38.3851 10.9829 43.7118 10.4464 49.651C9.91947 55.5141 11.7797 61.5931 15.5984 65.9833C17.5029 68.1554 19.9617 69.7694 22.7122 70.6528C25.4485 71.5638 28.3912 71.8591 31.3307 71.8654C31.6052 71.8654 31.8684 71.9744 32.0625 72.1685C32.2566 72.3626 32.3656 72.6258 32.3656 72.9003C32.3656 73.1747 32.2566 73.4379 32.0625 73.632C31.8684 73.8261 31.6052 73.9351 31.3307 73.9351H31.2926" stroke="#231F20" stroke-width="2" stroke-miterlimit="10"/>
</svg>
