<svg width="53" height="80" viewBox="0 0 53 80" fill="none" xmlns="http://www.w3.org/2000/svg">
<path d="M38.5245 72.7497C33.3975 77.9954 25.6601 78.8853 19.1654 77.5458C18.6814 77.4584 18.2006 77.3491 17.726 77.2179L17.445 77.143C16.9704 77.0118 16.5083 76.8651 16.0368 76.6934C9.75138 74.5514 3.54696 69.8677 1.77653 62.7423C-0.165624 54.9674 1.36754 46.1559 4.63674 38.7245C11.2376 23.7711 23.6836 9.99802 36.9165 2.04516C37.3548 1.76163 37.8095 1.50411 38.278 1.27393C38.5528 1.71419 38.7869 2.16693 39.0398 2.6228C46.4088 16.1867 50.1401 34.3655 48.2448 50.6022C47.3081 58.6644 44.1637 67.0419 38.534 72.7497" fill="white"/>
<path d="M17.4421 78.2203L17.161 78.1453C16.6645 78.0079 16.1775 77.8549 15.6935 77.68C8.0529 75.0728 2.5105 69.6148 0.877466 63.0826C-0.955406 55.7387 0.112432 46.7148 3.80628 38.3217C10.3072 23.5963 22.8532 9.35168 36.5138 1.14279C36.978 0.845352 37.4587 0.574318 37.9534 0.330959L38.6309 0L39.0338 0.643203C39.2554 0.999161 39.4522 1.36136 39.6582 1.72981L39.8269 2.04205C47.4425 16.0649 51.0145 34.6934 49.1504 50.6709C48.0763 59.8041 44.42 68.1223 39.1181 73.4991C34.4157 78.3077 26.8718 80.1999 18.9346 78.5637C18.4412 78.4732 17.9416 78.3577 17.4452 78.2234M37.9002 2.58535C37.7066 2.69776 37.51 2.81642 37.3164 2.94131C23.9742 10.9473 11.7717 24.7984 5.44876 39.1367C1.961 47.0614 0.943099 55.5451 2.65732 62.4051C4.13111 68.3128 9.25187 73.2868 16.3523 75.7098C16.8113 75.8722 17.2578 76.0221 17.7136 76.1407L17.9916 76.2156C18.4475 76.3405 18.9065 76.4436 19.3686 76.5279C26.747 78.0485 33.6818 76.3562 37.9314 72.0097C42.8836 66.9888 46.309 59.1609 47.3238 50.5367C49.1379 34.9963 45.6532 16.8612 38.2374 3.20675L38.0658 2.89451L37.8971 2.58226" fill="#010101"/>
<path d="M28.6484 15.3468C25.8913 18.5192 23.2748 21.6604 20.6426 24.8328C19.303 26.394 17.8915 27.9303 16.7456 29.6976C16.1576 30.5745 15.6358 31.494 15.1844 32.4484C14.697 33.3907 14.2795 34.3675 13.9354 35.371C13.1517 37.3475 12.5803 39.3803 11.9058 41.3661C11.5936 42.3684 11.4 43.3988 11.1377 44.4136L10.7474 45.9311L10.4789 47.4705C9.49848 51.5578 9.28617 55.7044 8.86465 60.0102L8.68047 60.0414C7.94045 55.9136 7.68742 51.4766 8.5617 47.152C9.38603 42.8462 10.8411 38.6122 13.0487 34.8996C13.5295 33.9316 14.1166 33.0261 14.6662 32.1143C15.2157 31.2026 15.6997 30.2409 16.2711 29.3447C17.3234 27.4713 18.3381 25.5666 19.5215 23.7681C20.7422 22.0346 22.13 20.4251 23.665 18.9626C25.1358 17.5041 26.7813 16.233 28.5641 15.1782L28.6484 15.3468Z" fill="#010101"/>
<path d="M27.6399 49.5689C27.6466 52.1419 27.3426 54.7063 26.7344 57.2064C26.3972 58.4554 25.8945 59.6669 25.6478 60.9284C25.413 62.1872 25.3084 63.4668 25.3356 64.7471C25.4043 67.3075 25.2824 69.8242 25.1825 72.3377C25.017 74.8544 24.8265 77.3336 24.48 79.9627L24.2958 80.0002C23.4652 77.5897 23.2217 74.9762 23.2217 72.3908C23.3199 69.7846 23.6947 67.1961 24.3395 64.669C24.6758 63.4188 24.9199 62.1456 25.0701 60.8596C25.2044 59.5794 25.1264 58.268 25.245 56.9753C25.5451 54.376 26.3008 51.8498 27.4775 49.5127L27.6399 49.5689Z" fill="#010101"/>
<path d="M34.9118 20.6738C36.2141 22.3273 37.043 24.3033 37.3099 26.391C37.4192 27.4683 37.3286 28.5767 37.4254 29.6508C37.5385 30.7041 37.7284 31.7477 37.9937 32.7733C38.5164 34.8864 38.6852 37.0715 38.4933 39.2398C38.2765 41.4601 37.6114 43.6132 36.5386 45.569L36.3637 45.5191C36.2981 43.2959 36.498 41.2663 36.5355 39.1993C36.6916 37.1416 36.8102 35.0839 36.9882 32.9544C37.0929 31.9055 37.0415 30.8469 36.8353 29.8132C36.6292 28.7984 36.142 27.8742 35.8235 26.9156C35.2258 24.9194 34.8633 22.8603 34.7432 20.78L34.9118 20.6738Z" fill="#010101"/>
<path d="M30.6376 29.8661C24.0305 26.5033 18.5537 40.7541 28.9483 42.0436C37.126 43.0647 38.9745 30.5999 29.7852 29.6663" fill="#010101"/>
<path d="M14.6688 21.2421C8.06169 17.8792 2.58503 32.1301 12.9796 33.4196C21.1573 34.4375 23.0057 21.9728 13.8164 21.0392" fill="#010101"/>
<path d="M24.4112 34.2877C24.3728 33.647 24.185 33.0243 23.863 32.4691C23.5409 31.9139 23.0936 31.4417 22.5565 31.0903C21.9921 30.7338 21.3531 30.5123 20.6892 30.4429C20.0252 30.3736 19.3542 30.4584 18.7283 30.6907L18.2412 29.3074C19.0782 28.9996 19.9751 28.8893 20.8617 28.9852C21.7484 29.0811 22.6008 29.3805 23.3527 29.8601C24.0762 30.3357 24.6802 30.9721 25.1173 31.7195C25.5544 32.467 25.8129 33.3053 25.8726 34.1691L24.4112 34.2877Z" fill="#010101"/>
<path d="M35.5923 37.6752L34.9521 36.3575C36.4384 35.6362 47.7323 31.3429 51.1701 34.4622C52.2879 35.4739 52.4629 37.0382 51.6979 39.1053L50.3239 38.5994C50.8641 37.1444 50.8142 36.1015 50.1865 35.5457C47.851 33.4256 38.4275 36.2982 35.5923 37.6752Z" fill="#010101"/>
</svg>
