<svg width="93" height="92" viewBox="0 0 93 92" fill="none" xmlns="http://www.w3.org/2000/svg">
<path d="M30.7415 78.56L22.7255 56.9683C22.5423 56.475 22.5407 55.9329 22.7208 55.4385C22.901 54.9441 23.2513 54.5292 23.7095 54.2676L45.1138 42.0234L48.0226 43.2146L25.4598 56.1204C25.3255 56.1973 25.2228 56.319 25.1699 56.464C25.117 56.609 25.1174 56.7679 25.1709 56.9127L33.6489 79.7512L30.7415 78.56Z" fill="black"/>
<path d="M34.9271 81.0689L30.1591 79.123L22.0329 57.2269C21.7877 56.5706 21.7845 55.8489 22.0241 55.1905C22.2636 54.5322 22.7303 53.98 23.3408 53.6324L45.0605 41.209L49.6986 43.1091L25.8308 56.7626L34.9271 81.0689ZM31.3218 77.9999L32.37 78.4308L24.4769 57.1644C24.3626 56.856 24.3617 56.5173 24.4744 56.2084C24.5871 55.8995 24.8061 55.6403 25.0925 55.4769L46.346 43.3189L45.1679 42.838L24.0777 54.9001C23.771 55.075 23.5366 55.3526 23.4162 55.6835C23.2958 56.0144 23.2973 56.3771 23.4203 56.7071L31.3218 77.9999Z" fill="black"/>
<path d="M33.1675 90.4662C33.7686 90.0465 34.3786 89.6379 34.9974 89.2403C35.0337 86.0309 35.0728 82.8201 35.0867 79.6093C34.9167 79.269 34.6902 78.9598 34.4168 78.6947C33.7496 78.0456 32.8298 78.5946 32.7056 79.2896C32.6645 79.3561 32.6321 79.4276 32.6092 79.5022C31.7857 79.2493 30.7556 79.1367 29.787 78.7447C25.5996 78.6321 22.2051 84.3046 21.3607 87.7683C20.1533 92.7166 25.5396 92.8028 28.8183 90.6873C30.3746 89.6851 31.6922 88.0936 32.6511 86.3408C32.7251 87.7169 33.0698 89.086 33.1675 90.4635" fill="black"/>
<path d="M33.9914 80.0403C33.5377 81.9529 27.7732 87.6489 26.0354 84.4506C25.1435 82.8021 29.6798 78.8213 30.6094 79.0896C31.5725 79.3676 32.6431 79.1605 33.6159 79.3592C33.6382 79.5816 34.0346 79.8304 33.9858 80.0403" fill="white"/>
<path d="M26.3156 85.6766C25.9616 85.4437 25.6734 85.1246 25.4781 84.7495C25.0301 83.9156 25.3776 82.7619 26.4859 81.3969C27.4378 80.2224 29.6752 78.1639 30.7863 78.478C31.2287 78.6045 31.727 78.617 32.256 78.617C32.755 78.6089 33.2537 78.648 33.7453 78.7338L34.2059 78.8283L34.2506 79.2911C34.3882 79.3897 34.4946 79.5255 34.5571 79.6824C34.6197 79.8393 34.6359 80.0108 34.6037 80.1765C34.2212 81.7861 30.6844 85.6461 27.9961 86.0019C27.4125 86.0973 26.8139 85.9788 26.3114 85.6683L26.3156 85.6766ZM33.2051 79.9236C32.8837 79.8914 32.5608 79.8766 32.2379 79.8791C31.6474 79.8694 31.0417 79.8597 30.4345 79.6859C30.006 79.7429 27.7183 81.4803 26.8334 83.1135C26.5822 83.5736 26.4928 83.96 26.5919 84.1435C26.8711 84.6397 27.2424 84.8301 27.8286 84.7495C29.798 84.491 32.7948 81.3956 33.3126 80.0668C33.2735 80.0181 33.2358 79.9709 33.2051 79.9278" fill="black"/>
<path d="M84.3473 78.6058C85.6984 79.0784 89.065 80.7158 89.7671 78.7782C88.1507 78.1235 84.4185 76.7405 83.1553 78.1541C83.6342 78.4525 84.1953 78.5931 84.759 78.5558" fill="black"/>
<path d="M31.6001 35.5433C32.9875 34.6093 34.5508 33.9685 35.955 33.0762C30.9539 33.0942 26.8587 29.6791 25.0972 25.3855C23.0873 26.3209 21.0146 28.0403 19.6104 29.7778C18.1113 31.6348 17.1999 34.12 17.7959 36.4273C18.0209 36.3205 18.214 36.1569 18.356 35.9529C18.498 35.7488 18.584 35.5113 18.6055 35.264C18.5323 40.569 20.3147 45.7342 23.647 49.8739L24.095 47.6582C24.7921 50.0507 25.9461 52.2868 27.4938 54.2439C27.6436 53.6675 27.7924 53.0912 27.9404 52.5148C28.6776 54.1616 29.6989 55.667 30.9581 56.9627C31.395 57.4116 32.5493 57.3407 32.2031 56.8237C32.4446 58.1108 33.7301 59.1185 35.0435 59.0476C36.7774 60.1051 38.3862 61.3537 39.8394 62.7699C40.045 62.39 40.2507 62.0101 40.4564 61.6301L43.1837 64.1557L43.4307 62.3835C46.584 62.8292 49.55 64.1418 51.9952 66.1739C51.8479 60.2153 49.5044 54.5188 45.4114 50.1699C45.7774 49.8404 46.2266 49.6165 46.7108 49.5222C43.8828 46.7809 40.4776 44.7008 36.7422 43.4328C37.5035 42.6659 38.4252 42.0755 39.4416 41.7037C37.3712 41.3129 35.4494 40.3605 33.8878 38.9515C34.244 38.5568 34.676 38.2373 35.1584 38.012C35.6408 37.7866 36.1637 37.6599 36.6961 37.6394C34.8676 37.6756 32.76 36.9736 31.6029 35.5545" fill="black"/>
<path d="M51.0685 2.22876L46.796 6.48204L38.7605 9.81794C38.7605 9.81794 32.4558 12.5534 31.3364 14.7815C31.3364 14.7815 26.2502 20.0481 26.3521 28.4546C26.3521 28.4546 26.6578 39.3949 37.2392 44.56C37.2392 44.56 45.2746 47.497 50.8689 45.4718C50.8689 45.4718 63.8887 48.0044 68.3636 42.3319C68.3636 42.3319 76.8052 36.458 76.0934 27.2397C76.0934 27.2397 76.0934 17.4155 68.873 12.5534L64.4987 10.1223L57.9888 7.6913L53.7177 4.8544L51.0685 2.22876Z" fill="white"/>
<path d="M46.0348 46.7118C43.3982 46.7118 40.7951 46.3184 38.5493 45.5512C30.6966 42.9102 25.683 35.7339 25.7807 27.2648C25.8812 18.6068 31.1684 11.3915 39.2486 8.87981C47.4836 6.33618 50.1259 2.38314 50.5725 1.61449L51.1783 0.572021L51.9836 1.61449C52.4303 2.38314 55.0767 6.34035 63.3062 8.87981C71.3835 11.3901 76.6679 18.6026 76.7698 27.2551C76.8689 35.7338 71.8595 42.9088 64.0069 45.5512C60.248 46.8341 55.4926 47.0662 51.2704 46.1822C49.5481 46.537 47.7936 46.7145 46.0348 46.7118ZM51.2801 3.20599C50.0156 4.88367 46.7941 8.09032 39.6952 10.2865C32.239 12.6035 27.3593 19.274 27.2658 27.2801C27.1946 33.503 30.2486 41.2048 39.0322 44.157C42.5858 45.3732 47.1026 45.5776 51.121 44.713L51.2773 44.6783L51.4337 44.713C55.4507 45.5803 59.9744 45.3732 63.5351 44.157C72.3173 41.2034 75.3685 33.4988 75.2945 27.2732C75.201 19.2698 70.3241 12.6021 62.8721 10.2865C55.808 8.10283 52.581 4.91703 51.2871 3.20599" fill="black"/>
<path d="M83.6696 79.5481L59.3398 40.6167L57.1973 41.8454L81.9947 81.5497L83.6696 79.5481Z" fill="black"/>
<path d="M81.906 82.8036L56.165 41.587L59.5903 39.623L84.5747 79.6122L81.906 82.8036ZM58.2294 42.1027L82.0819 80.2947L82.7588 79.4857L59.0892 41.6107L58.2294 42.1027Z" fill="black"/>
<path d="M82.4093 81.4136C81.6486 84.8815 85.882 88.6191 88.6554 89.8729C92.6222 91.6659 93.5518 87.1903 92.297 84.1198C91.3311 81.7569 88.9555 79.6567 86.6274 78.5767C83.4171 77.088 83.6139 79.5566 82.4093 81.4136Z" fill="black"/>
<path d="M83.2978 78.2374C84.8331 78.9199 88.705 84.6313 85.7404 85.5667C84.2134 86.049 81.5879 81.6331 81.9606 80.902C82.3486 80.1417 82.3444 79.2174 82.6669 78.4376C82.8567 78.4557 83.1289 78.1596 83.2978 78.2374Z" fill="white"/>
<path d="M85.079 86.1783C84.483 86.024 83.8353 85.5472 83.1681 84.7619C82.4046 83.8682 80.9014 81.5817 81.3955 80.6142C81.5611 80.2394 81.6765 79.8445 81.7389 79.4397C81.8129 79.0158 81.9269 78.5997 82.0795 78.1971L82.2581 77.769L82.7215 77.8107C82.8276 77.7014 82.9655 77.628 83.1158 77.6008C83.266 77.5736 83.421 77.5941 83.559 77.6592C85.0134 78.3069 87.5858 81.9139 87.4588 84.192C87.403 85.1761 86.86 85.8808 85.9346 86.1741C85.6569 86.2576 85.3611 86.2605 85.0818 86.1824L85.079 86.1783ZM83.1626 78.9449C83.09 79.1784 83.037 79.4328 82.9825 79.6983C82.9005 80.2149 82.7469 80.7178 82.5261 81.1925C82.5359 81.5497 83.6651 83.743 84.8738 84.6743C85.2214 84.9398 85.4516 84.9968 85.5507 84.969C85.9695 84.837 86.1663 84.5812 86.1928 84.1197C86.2835 82.4851 84.2471 79.5968 83.2184 78.9157C83.2003 78.9268 83.1793 78.9366 83.1626 78.9449Z" fill="black"/>
<path d="M46.8634 14.8247L49.4651 20.0718L55.2799 20.9141L51.0716 24.9978L52.0654 30.7662L46.8634 28.0433L41.6627 30.7662L42.6551 24.9978L38.4482 20.9141L44.263 20.0718L46.8634 14.8247Z" fill="black"/>
<path d="M27.2954 15.2778L29.8958 20.5249L35.7106 21.3659L31.5023 25.451L32.4961 31.2179L27.2954 28.495L22.0934 31.2179L23.0872 25.451L18.8789 21.3659L24.6937 20.5249L27.2954 15.2778Z" fill="black"/>
<path d="M33.1004 22.5681L32.9482 22.2693C34.686 21.3908 36.474 21.4061 38.2061 21.4186C39.0757 21.4442 39.9461 21.415 40.812 21.3311L40.8511 21.6618C39.97 21.7492 39.0842 21.7799 38.1991 21.7536C36.4321 21.7411 34.7599 21.7272 33.0948 22.5681" fill="black"/>
<path d="M71.5617 22.7211C71.3691 20.2636 70.7982 18.9557 68.2118 18.6276C64.848 18.2009 61.5121 19.2781 58.2753 20.3192C56.1495 21.0031 53.9484 21.7092 51.7514 21.9941L51.623 20.9989C53.7293 20.7209 55.8829 20.0343 57.9641 19.3643C61.3014 18.2885 64.7531 17.1793 68.3388 17.6324C71.9246 18.0855 72.3866 20.3567 72.5694 22.6432L71.5617 22.7211Z" fill="black"/>
<path d="M50.8184 45.9166C50.5405 45.7403 50.273 45.5481 50.0172 45.3412C49.7646 45.1466 49.5315 44.9339 49.2956 44.7241C49.0597 44.5142 48.8433 44.2876 48.6242 44.0624C48.4051 43.8373 48.2055 43.6024 48.0031 43.3591C47.2046 42.4041 46.5467 41.3407 46.049 40.2011C45.5467 39.0795 45.2106 37.8912 45.051 36.6734C44.9352 36.0743 44.945 35.4628 44.9115 34.8595C44.9024 34.5576 44.9122 34.2554 44.9408 33.9546L44.9938 33.054L45.0245 33.956C45.0252 34.2552 45.0433 34.5541 45.0789 34.8512C45.1683 35.4433 45.2185 36.0382 45.3804 36.6122C45.6419 37.7643 46.0697 38.8725 46.6506 39.9023C47.2148 40.9238 47.9226 41.8599 48.7526 42.6822C48.9536 42.8907 49.1714 43.0783 49.3863 43.2771C49.6013 43.4759 49.8288 43.6482 50.0563 43.8262C50.2838 44.0041 50.5183 44.1681 50.7542 44.321C50.9823 44.4726 51.2185 44.6118 51.4618 44.7379L50.8184 45.9166Z" fill="black"/>
<path d="M68.7774 38.3193C67.3649 37.4214 65.7849 36.8209 64.3584 35.9675C69.3581 35.8535 73.3625 32.3327 75.0095 27.9946C77.0446 28.8786 79.1606 30.5424 80.6094 32.2438C82.1573 34.0604 83.1344 36.5207 82.6012 38.8433C82.374 38.7416 82.1773 38.5828 82.0305 38.3825C81.8837 38.1821 81.7917 37.9472 81.7637 37.7007C81.975 43.0009 80.3294 48.2094 77.1088 52.4343C76.9394 51.6995 76.7701 50.9651 76.6007 50.2312C75.9668 52.6409 74.872 54.9062 73.3765 56.903L72.8838 55.1865C72.1908 56.8504 71.2101 58.3803 69.9861 59.7066C69.5674 60.1667 68.4047 60.1236 68.7299 59.594C68.5234 60.8867 67.2644 61.9278 65.951 61.893C64.2452 62.9951 62.6696 64.2853 61.2542 65.739L60.6079 64.6145L57.9476 67.211C57.8545 66.6226 57.7564 66.0346 57.6531 65.4471C54.5122 65.9737 51.5813 67.363 49.1905 69.4586C49.1811 63.4977 51.3746 57.7417 55.3528 53.2878C54.9782 52.9681 54.5231 52.7562 54.0366 52.6748C56.7913 49.8602 60.1408 47.6918 63.8419 46.3268C63.0612 45.5797 62.1241 45.0139 61.0978 44.67C63.1569 44.2239 65.0529 43.2218 66.5777 41.7733C66.2114 41.3879 65.7712 41.0796 65.283 40.8669C64.7948 40.6541 64.2687 40.5412 63.7358 40.5349C65.5643 40.5237 67.6524 39.7662 68.7732 38.3109" fill="black"/>
<path d="M45.0806 57.2934L43.7686 55.2863C44.673 54.7038 45.6217 54.1926 46.6061 53.7574C47.0956 53.5387 47.5911 53.3385 48.0927 53.1569C48.3439 53.0652 48.5951 52.979 48.8478 52.8956L49.2274 52.7733C49.3502 52.7357 49.5191 52.6857 49.6462 52.6537C50.7237 52.3827 51.7049 52.2159 52.7169 52.0283L55.7122 51.4973C59.6916 50.8023 63.6528 50.0712 67.5428 49.1343C69.4843 48.6659 71.4133 48.1502 73.2739 47.5192C74.2021 47.2023 75.1205 46.8618 75.9873 46.467C76.8276 46.1071 77.6237 45.6524 78.3601 45.1118C78.6612 44.8874 78.9271 44.6194 79.1487 44.3167C79.2952 44.1289 79.3729 43.897 79.3692 43.6593C79.3692 43.6106 79.3497 43.5564 79.3497 43.5036C79.3232 43.4466 79.3162 43.3771 79.3008 43.3646C79.2509 43.2773 79.1868 43.1988 79.111 43.1325C78.8138 42.8567 78.486 42.6156 78.134 42.4139C77.3124 41.9336 76.4585 41.5105 75.5783 41.1476C74.6794 40.764 73.754 40.4123 72.8202 40.0801L73.627 37.8242C74.6041 38.1689 75.5643 38.5345 76.5246 38.9445C77.5105 39.3522 78.4666 39.8278 79.386 40.3679C79.9034 40.6663 80.3832 41.0251 80.8153 41.4367C80.9464 41.5609 81.0664 41.6963 81.174 41.8412C81.3053 42.0083 81.4155 42.1908 81.502 42.3847C81.5501 42.4786 81.588 42.5774 81.615 42.6794L81.696 42.9462C81.7371 43.1358 81.7642 43.3281 81.7769 43.5217C81.8099 44.28 81.5895 45.0279 81.1502 45.6483C80.7857 46.1669 80.3421 46.6255 79.8354 47.0077C78.9502 47.6668 77.9909 48.221 76.9769 48.659C76.0082 49.0996 75.0228 49.4624 74.0457 49.7988C72.0777 50.4645 70.0929 50.9927 68.1025 51.475C64.1245 52.4285 60.1187 53.1611 56.1267 53.8644L53.144 54.3925C52.1669 54.5732 51.148 54.7526 50.2575 54.9778C50.1403 55.0069 50.0635 55.0306 49.9435 55.0667L49.5987 55.1779C49.3698 55.253 49.1437 55.3308 48.9176 55.4142C48.4667 55.5782 48.0215 55.7575 47.586 55.9521C46.7142 56.3365 45.8741 56.7887 45.0736 57.3045" fill="white"/>
<path d="M43.9639 55.1654C44.873 54.5927 45.8254 54.0912 46.8126 53.6656C47.3039 53.4525 47.8009 53.2575 48.3034 53.0805C48.5546 52.9878 48.8063 52.903 49.0585 52.8261C49.2957 52.7483 49.6168 52.6579 49.8736 52.5968C50.926 52.348 51.9156 52.1798 52.9206 51.9908L55.9103 51.4626C59.8855 50.7676 63.8397 50.0309 67.7242 49.0996C69.6629 48.6298 71.5849 48.1072 73.4469 47.4706C74.3641 47.1623 75.2646 46.8069 76.1449 46.4059C76.9743 46.0424 77.7565 45.5804 78.4745 45.0298C78.7608 44.8093 79.0068 44.5413 79.2016 44.2376C79.3412 43.9804 79.3957 43.8011 79.3594 43.5996C79.3548 43.5733 79.3515 43.5469 79.3496 43.5203L79.3203 43.4342C79.3119 43.3786 79.2896 43.3758 79.284 43.3507C79.2114 43.247 79.125 43.1535 79.0272 43.0728C78.7063 42.8027 78.3616 42.5622 77.9971 42.3542C76.392 41.434 74.5174 40.707 72.6625 40.0454" stroke="black" stroke-width="1.75" stroke-miterlimit="10"/>
<path d="M73.4842 37.6951C74.4612 38.0398 75.4229 38.4012 76.3846 38.807C77.3703 39.2129 78.3292 39.6804 79.2557 40.2067C79.7677 40.4999 80.25 40.8416 80.6961 41.2269C80.8246 41.3426 80.9467 41.4651 81.0618 41.5939L81.2461 41.8219C81.3149 41.9025 81.3743 41.9907 81.4234 42.0846C81.5371 42.2742 81.6276 42.4767 81.6927 42.6878C81.7206 42.7795 81.75 42.8699 81.7723 42.9658L81.8225 43.2591C81.8513 43.4588 81.8625 43.6607 81.856 43.8623C81.8434 44.0635 81.815 44.2633 81.7709 44.46C81.7272 44.6503 81.6664 44.8364 81.5894 45.016C81.5206 45.1873 81.437 45.3524 81.3396 45.5094C80.9987 46.062 80.5632 46.5509 80.0527 46.9536C79.1715 47.6387 78.2091 48.2134 77.1872 48.6646C76.2308 49.1019 75.2525 49.4898 74.256 49.8267C72.288 50.5008 70.3046 51.0373 68.3156 51.5196C64.3376 52.4801 60.3359 53.2168 56.3482 53.9201L53.3668 54.4483C52.3828 54.6276 51.3807 54.8055 50.4664 55.0223C50.2319 55.0793 50.0644 55.1252 49.8216 55.2044C49.5787 55.2836 49.3665 55.3545 49.1418 55.4338C48.6905 55.5922 48.2467 55.766 47.8102 55.955C46.94 56.3297 46.1 56.7707 45.2979 57.2741" stroke="black" stroke-width="1.75" stroke-miterlimit="10"/>
<path d="M4.34668 15.0914L6.36916 13.7932C8.08178 16.4633 9.09513 19.4545 9.77208 22.411C10.449 25.3674 10.8203 28.3405 11.2879 31.2317C11.7792 34.1117 12.2384 37.007 13.5616 39.2934C13.881 39.8504 14.2642 40.3686 14.7034 40.8377C15.1355 41.2919 15.6298 41.6831 16.1717 41.9997C16.6948 42.3083 17.2633 42.5334 17.8564 42.6669C18.418 42.7844 18.9976 42.7882 19.5606 42.678L20.0464 45.0256C19.1604 45.2012 18.2478 45.1964 17.3637 45.0117C16.5145 44.8254 15.7003 44.5059 14.9518 44.0652C14.2181 43.6367 13.5489 43.107 12.9642 42.4917C12.392 41.8851 11.8931 41.2138 11.4777 40.4916C10.6626 39.0724 10.1489 37.5546 9.77767 36.0604C9.40639 34.5662 9.16074 33.0873 8.91229 31.6125C8.43773 28.6672 8.06085 25.7538 7.42577 22.9392C6.79069 20.1245 5.84993 17.4321 4.34668 15.0887" fill="white"/>
<path d="M6.45703 13.9395C8.15848 16.6123 9.13413 19.6105 9.8069 22.5572C10.4797 25.5039 10.8412 28.477 11.3129 31.3654C11.7847 34.2537 12.276 37.1254 13.6243 39.391C13.9472 39.9446 14.3351 40.4579 14.78 40.92C15.2198 41.3652 15.7197 41.7474 16.2652 42.0556C17.3413 42.6741 18.5654 42.9132 19.6527 42.6672" stroke="black" stroke-width="1.75" stroke-miterlimit="10"/>
<path d="M20.2125 45.0911C19.3177 45.2872 18.3922 45.3005 17.4921 45.13C16.6269 44.9659 15.7955 44.6581 15.0328 44.2196C14.2861 43.7975 13.6017 43.2746 12.9991 42.6656C12.4129 42.0614 11.9008 41.39 11.4735 40.6655C10.6277 39.2463 10.1084 37.7215 9.72322 36.2176C9.33798 34.7137 9.09371 33.2389 8.84527 31.7697C8.36651 28.8258 7.99526 25.911 7.36716 23.1047C6.73906 20.2984 5.83179 17.6018 4.34668 15.2681" stroke="black" stroke-width="1.75" stroke-miterlimit="10"/>
<path d="M9.71622 14.309C9.52082 14.5314 9.33241 14.7566 9.14537 14.9846C8.90949 13.9518 8.58704 12.9482 8.0064 12.0364C6.83534 10.1961 4.91757 8.83953 2.6578 9.03274C1.64447 9.1203 0.834921 9.80555 0.809797 10.8744C0.713489 15.1055 2.8267 18.9557 6.35801 21.2672C6.40686 21.4659 6.45432 21.6647 6.49759 21.8635C7.1199 24.4073 7.59339 26.9849 7.91569 29.5833C8.20322 31.9031 11.9034 31.9323 11.6131 29.5833C11.2465 26.5053 10.6918 23.4524 9.95214 20.4415C10.5917 19.1709 11.3888 17.9853 12.325 16.9124C13.8896 15.1388 11.2851 12.5243 9.71067 14.309" fill="black"/>
<path d="M48.9807 64.0697C48.8368 64.0674 48.694 64.0959 48.562 64.1532C48.422 64.1169 48.2757 64.1117 48.1335 64.1379C47.6116 64.2335 47.0852 64.3026 46.5563 64.345C47.2625 61.4941 47.6729 56.4597 43.9266 55.6869C40.0673 54.8904 38.4231 59.0006 37.707 61.9792C37.6459 62.0711 37.6024 62.1733 37.5786 62.2809C37.2841 62.1071 36.9938 61.9278 36.7091 61.7249C36.6462 61.6832 36.5793 61.6479 36.5095 61.6193L36.4815 61.5539C36.268 61.0507 35.5324 60.9507 35.1025 61.1939C34.5805 61.49 34.5288 62.0724 34.741 62.5686C34.7801 62.6603 34.8192 62.7534 34.8596 62.8466C35.2574 66.7023 37.2436 70.0132 39.3582 73.181C39.4672 73.3224 39.6131 73.4312 39.78 73.4957C39.9469 73.5602 40.1283 73.5777 40.3046 73.5465C44.0411 72.5735 46.5856 68.8818 49.1091 66.2103C49.1618 66.1575 49.2085 66.0992 49.2487 66.0365C50.2718 65.7822 50.1881 64.0628 48.9835 64.0628L48.9807 64.0697ZM44.6441 64.3741C42.9021 64.3006 41.1864 63.9243 39.5746 63.2622V62.6409C39.6195 62.5581 39.6533 62.4697 39.6751 62.3782C40.0799 60.6282 40.8433 57.4716 43.2259 57.6162C45.7788 57.7705 45.0502 62.2308 44.6371 63.8071C44.5844 63.9925 44.5844 64.1887 44.6371 64.3741" fill="white"/>
<path d="M46.3806 55.1809C46.3052 54.2746 45.2639 54.0078 44.7056 54.3886C43.5164 54.0384 42.2783 54.5443 41.5484 55.52C40.7653 56.5667 40.6872 58.0414 41.0124 59.2729C41.3781 60.6532 42.8395 60.8922 43.4857 59.5898C43.5234 59.5134 43.5583 59.437 43.5918 59.3591C43.9882 59.8359 44.848 59.8122 45.2667 59.234C46.1088 58.0576 46.5045 56.6219 46.3833 55.1823" fill="black"/>
</svg>
