<svg width="50" height="103" viewBox="0 0 50 103" fill="none" xmlns="http://www.w3.org/2000/svg">
<path d="M36.1491 3.00212C35.2827 5.06716 31.5454 14.0176 31.0746 15.1324L31.0082 18.4568L30.8608 25.5617L38.6012 4.0072L36.3282 2.57764L36.1491 3.00508" fill="white"/>
<path d="M36.1491 3.00212C35.2827 5.06716 31.5454 14.0176 31.0746 15.1324L31.0082 18.4568L30.8608 25.5617L38.6012 4.0072L36.3282 2.57764L36.1491 3.00212Z" stroke="#221F20" stroke-width="2" stroke-miterlimit="10"/>
<path d="M41.6742 3.43262C38.6734 10.5491 31.5078 19.8951 30.9706 20.3428C30.9706 20.3428 31.1295 21.7638 30.9014 27.1705C31.9932 26.43 33.0004 25.5719 33.905 24.6116L34.3498 24.1293C35.3381 23.0156 36.2372 21.8258 37.0387 20.571C41.1371 14.2546 43.1588 6.53738 43.6035 4.70917C43.0779 4.34815 42.5523 4.00159 42.0151 3.65501C41.9053 3.57992 41.7868 3.50482 41.6742 3.43262Z" fill="white"/>
<path d="M41.6742 3.43262C38.6734 10.5491 31.5078 19.8951 30.9706 20.3428C30.9706 20.3428 31.1295 21.7638 30.9014 27.1705C31.9932 26.43 33.0004 25.5719 33.905 24.6116L34.3498 24.1293C35.3381 23.0156 36.2372 21.8258 37.0387 20.571C41.1371 14.2546 43.1588 6.53738 43.6035 4.70917C43.0779 4.34815 42.5523 4.00159 42.0151 3.65501C41.9053 3.57992 41.7811 3.49905 41.6742 3.43262Z" stroke="#221F20" stroke-width="2" stroke-miterlimit="10"/>
<path d="M46.7749 5.70557C40.4671 21.0706 31.8633 25.6888 30.9131 25.5761C32.2025 26.0911 33.523 26.5243 34.867 26.873L35.9327 27.1618C44.294 19.7363 48.6897 7.7012 48.6897 7.7012C48.6546 7.64097 48.6131 7.58492 48.5656 7.5338C48.3721 7.32585 47.8984 6.82907 46.7749 5.70557Z" fill="white"/>
<path d="M46.7749 5.70557C40.4671 21.0706 31.8633 25.6888 30.9131 25.5761C32.2025 26.0911 33.523 26.5243 34.867 26.873L35.9327 27.1618C44.294 19.7363 48.6897 7.7012 48.6897 7.7012C48.6546 7.64097 48.6131 7.58492 48.5656 7.5338C48.3721 7.32585 47.8984 6.82907 46.7749 5.70557Z" stroke="#221F20" stroke-width="2" stroke-miterlimit="10"/>
<path d="M32.0827 2.44479C30.1217 8.0825 27.3809 23.1096 27.3809 23.1096C27.3809 23.1096 30.5982 25.1314 33.703 27.3437C33.6452 27.2051 33.5962 27.0722 33.5471 26.9249C30.7745 18.9882 34.5752 2 34.5752 2C34.2536 2.00432 33.9327 2.02649 33.6136 2.06642C33.0857 2.10597 32.5682 2.23388 32.0827 2.44479Z" fill="white"/>
<path d="M32.0827 2.44479C30.1217 8.0825 27.3809 23.1096 27.3809 23.1096C27.3809 23.1096 30.5982 25.1314 33.703 27.3437C33.6452 27.2051 33.5962 27.0722 33.5471 26.9249C30.7745 18.9882 34.5752 2 34.5752 2C34.2536 2.00432 33.9327 2.02649 33.6136 2.06642C33.0857 2.10597 32.5682 2.23388 32.0827 2.44479V2.44479Z" stroke="#221F20" stroke-width="2" stroke-miterlimit="10"/>
<path d="M25.512 25.663L35.7449 29.7064L36.0972 27.2543C32.7151 23.8058 27.0573 22.561 27.0573 22.561C27.0573 22.561 25.1799 24.9178 25.512 25.6514" fill="white"/>
<path d="M25.512 25.663L35.7449 29.7064L36.0972 27.2543C32.7151 23.8058 27.0573 22.561 27.0573 22.561C27.0573 22.561 25.1799 24.9294 25.512 25.663Z" stroke="#221F20" stroke-width="2" stroke-miterlimit="10"/>
<path d="M36.7152 28.8023C35.2105 27.3755 33.0906 26.2579 30.1793 25.6456C29.221 25.4419 28.2504 25.301 27.2738 25.2239C25.9796 25.107 24.6751 25.2614 23.444 25.6773C10.9931 29.8478 7.33678 59.4546 7.33678 59.4546C7.33678 59.4546 3.5041 86.7073 2.35172 92.3219C2.14666 93.327 1.97045 94.2801 1.82316 95.1696C1.42748 97.5148 1.00289 101.853 1 102C1 102.02 32.253 62.6691 38.1276 45.7848C38.2286 45.496 38.3614 45.2072 38.4741 44.9184C39.3405 42.5616 40.0655 39.5087 39.9327 36.505C39.8142 33.6948 38.9333 30.9338 36.7354 28.837C36.7278 28.83 36.7211 28.8222 36.7152 28.8138" fill="white"/>
<path d="M36.7152 28.8023C35.2105 27.3755 33.0906 26.2579 30.1793 25.6456C29.221 25.4419 28.2504 25.301 27.2738 25.2239C25.9796 25.107 24.6751 25.2614 23.444 25.6773C10.9931 29.8478 7.33678 59.4546 7.33678 59.4546C7.33678 59.4546 3.5041 86.7073 2.35172 92.3219C2.14666 93.327 1.97045 94.2801 1.82316 95.1696C1.42748 97.5148 1.00289 101.853 1 102C1 102.02 32.253 62.6691 38.1276 45.7848C38.2286 45.496 38.3614 45.2072 38.4741 44.9184C39.3405 42.5616 40.0655 39.5087 39.9327 36.505C39.8142 33.6948 38.9333 30.9338 36.7354 28.837C36.727 28.8264 36.7203 28.8147 36.7152 28.8023V28.8023Z" stroke="#221F20" stroke-width="2" stroke-miterlimit="10"/>
<path d="M19.9061 35.5376C20.392 35.3397 20.9291 35.3042 21.4369 35.4365C21.8975 35.5624 22.3445 35.7336 22.7713 35.9477C23.138 36.2192 23.5135 36.4098 23.8485 36.6726C24.1836 36.9354 24.5244 37.1723 24.9489 37.4842V37.5651C24.0161 37.5276 23.1698 37.0856 22.3755 36.661C21.5813 36.2365 20.7986 35.7397 19.8975 35.6184L19.9061 35.5376Z" fill="#221F20"/>
<path d="M24.4779 43.1623C25.156 42.9897 25.8698 43.0188 26.5315 43.2461C27.1814 43.4223 27.7474 43.7313 28.3221 43.9335C28.8241 44.2083 29.3513 44.4345 29.8962 44.6092C30.4535 44.8001 31.0514 44.8401 31.6291 44.7249L31.6753 44.7913C31.1355 45.1662 30.4757 45.3267 29.824 45.2417C29.1841 45.1438 28.5627 44.9491 27.9814 44.6641C26.8261 44.1356 25.7372 43.3934 24.4722 43.2345L24.4779 43.1623Z" fill="#221F20"/>
<path d="M17.7832 48.1354C18.0846 48.0214 18.4056 47.9684 18.7277 47.9795C18.9879 48.0054 19.2458 48.0519 19.4988 48.1182C19.7317 48.232 19.9557 48.3633 20.1688 48.511C20.4197 48.7046 20.6331 48.9424 20.7985 49.2127L20.7811 49.2907C19.7171 49.1023 18.6921 48.7372 17.7485 48.2106L17.7832 48.1354Z" fill="#221F20"/>
<path d="M20.4634 54.0797C20.7096 53.9364 20.9874 53.856 21.2721 53.8457C21.4961 53.8565 21.718 53.8934 21.9334 53.9556C22.1283 54.0678 22.3079 54.2046 22.4677 54.3627C22.6569 54.5753 22.7909 54.8312 22.8577 55.1079L22.823 55.183C22.0085 54.8822 21.2103 54.539 20.4316 54.1548L20.4634 54.0797Z" fill="#221F20"/>
<path d="M29.5004 37.0391C30.1082 36.8398 30.7655 36.8511 31.3662 37.071C31.9102 37.2671 32.4401 37.5006 32.9518 37.7699C33.4053 38.0905 33.8674 38.3158 34.3006 38.5641C34.7632 38.8299 35.27 39.0099 35.7966 39.0955L35.8227 39.1705C34.6847 39.5662 33.512 39.0088 32.5532 38.4832C31.5943 37.9575 30.6239 37.2356 29.4946 37.12L29.5004 37.0391Z" fill="#221F20"/>
<path d="M14.0317 58.9517C14.6555 59.1596 15.187 59.3849 15.7271 59.6015C16.2672 59.8181 16.7582 60.0954 17.2954 60.2802C17.7835 60.5691 18.312 60.7597 18.8145 61.0139C19.3426 61.2732 19.8845 61.5035 20.4377 61.704V61.782C19.216 61.9149 18.0347 61.4932 16.9372 61.0225C15.8406 60.5162 14.8346 59.8332 13.9595 59.0007L14.0317 58.9517Z" fill="#221F20"/>
<path d="M13.7657 66.675C14.0324 66.5502 14.3233 66.4851 14.6178 66.4844C14.8464 66.4989 15.0734 66.5328 15.2964 66.5855C15.4925 66.689 15.6807 66.8067 15.8596 66.9378C16.0761 67.1259 16.2613 67.3472 16.4083 67.5934V67.6743C15.466 67.5476 14.5586 67.2333 13.7397 66.7501L13.7657 66.675Z" fill="#221F20"/>
<path d="M12.0504 72.6998C12.3599 72.6409 12.677 72.6331 12.989 72.6766C13.2409 72.7304 13.4888 72.8009 13.7313 72.8875C13.9557 73.0244 14.1683 73.1799 14.3667 73.3524C14.6021 73.5744 14.7872 73.8443 14.9097 74.1439L14.8779 74.2189C13.839 73.9079 12.8619 73.4193 11.9897 72.7748L12.0504 72.6998Z" fill="#221F20"/>
<path d="M27.4355 53.5829C27.68 53.4708 27.9399 53.3958 28.2066 53.3605C28.4174 53.3258 28.5849 53.3836 28.7611 53.3605C28.9142 53.4529 29.0702 53.4616 29.2232 53.5713C29.3763 53.6811 29.5438 53.7907 29.8442 53.9727L29.8788 54.0449C29.0442 54.429 28.1113 54.0854 27.3979 53.6493L27.4355 53.5829Z" fill="#221F20"/>
<path d="M8.33907 79.8275C8.58365 79.7328 8.84542 79.6906 9.10737 79.7034C9.2736 79.7275 9.43844 79.7602 9.60124 79.8016C9.70521 79.9113 9.8063 79.9315 9.89005 80.0557C10.0382 80.2273 10.2081 80.3788 10.3955 80.5063L10.4244 80.5842C10.2369 80.6571 10.0364 80.6912 9.83534 80.6842C9.63426 80.6773 9.43665 80.6294 9.2546 80.5438C8.91125 80.3569 8.58545 80.1394 8.28125 79.8939L8.33907 79.8275Z" fill="#221F20"/>
<path d="M21.5148 45.1753C17.1999 43.6474 14.9961 52.8116 21.4628 52.7683C26.5488 52.7307 26.676 44.953 20.9776 45.1234" fill="#010101"/>
<path d="M11.0479 41.1839C6.73299 39.659 4.5294 48.8231 10.996 48.7769C16.0821 48.7394 16.2091 40.9616 10.5108 41.1348" fill="#010101"/>
<path d="M18.0606 48.384C17.9867 47.9941 17.8218 47.627 17.5794 47.3129C17.337 46.9987 17.0239 46.7462 16.6656 46.5759C16.2917 46.4029 15.8829 46.3186 15.4711 46.3297C15.0593 46.3407 14.6555 46.4468 14.2914 46.6395L13.8843 45.8307C14.3724 45.5746 14.9132 45.4348 15.4643 45.4223C16.0154 45.4098 16.562 45.5248 17.0613 45.7585C17.5422 45.9909 17.9629 46.3313 18.2906 46.7532C18.6182 47.175 18.844 47.667 18.9501 48.1905L18.0606 48.384Z" fill="#010101"/>
<path d="M25.1769 49.5536L24.6772 48.7998C25.5293 48.2222 32.0942 44.7014 34.4509 46.3304C35.2163 46.8618 35.4501 47.8063 35.1469 49.1319L34.266 48.9327C34.4798 47.9998 34.3672 47.373 33.9339 47.0755C32.3368 45.9665 26.8 48.4821 25.1769 49.5536Z" fill="#010101"/>
</svg>
